<?xml version="1.0" encoding="utf-8"?>
<!-- Generator: Adobe Illustrator 19.0.0, SVG Export Plug-In . SVG Version: 6.00 Build 0)  -->
<svg version="1.1" id="Layer_1" xmlns="http://www.w3.org/2000/svg" xmlns:xlink="http://www.w3.org/1999/xlink" x="0px" y="0px"
	 viewBox="-197 320.9 200 200" style="enable-background:new -197 320.9 200 200;" xml:space="preserve">
<style type="text/css">
	.st0{fill:#E65100;}
	.st1{fill:#FF6E0A;}
</style>
<path class="st0" d="M-294,907.5h-0.1C-294,907.5-294,907.5-294,907.5z"/>
<path class="st1" d="M-6.5,378.1c-5.4,10.3-11.4,11.2-27,0.9c-48.8-32.2-61.9-6.8-63.5-2.1c-1.6-4.7-14.7-30.1-63.5,2.1
	c-15.6,10.3-21.6,9.4-27-0.9c-9.5-18.3-9.5-57.2-9.5-57.2s0,72.4,0,100c0,0.3,0,0.6,0,0.9c0,6.1,0,9.8,0,12
	c0,38.4,19.5,59.9,41.3,71.9c0.5-0.9,1-1.8,1.6-2.6c9.8,6.8,20.8,11.9,32.7,14.9c0.8,0.2,1.6,0.3,2.4,0.5c4.6,1,9.2,1.7,14,2.1
	c0.2,0,0.5,0,0.7,0.1c0.6,0,1.1,0.1,1.7,0.1c0.5,0,1,0,1.4,0.1c0.4,0,0.8,0,1.2,0c0.8,0,1.5,0,2.3,0c0.3,0,0.5,0,0.5,0
	c8.4,0,16.6-1,24.4-3c-12.6,2.6-22.2,2.9-24.1,2.9c2.1,0,11.5-0.4,24-2.9c17.3-4.3,32.8-13.2,45.2-25.2c0.6,1.5,1.2,3.1,1.7,4.6
	c16.4-12.9,29-32.7,29-63.6c0-2.2,0-5.9,0-11.9c0-0.3,0-0.6,0-0.9c0-27.6,0-100,0-100S3,359.8-6.5,378.1z M-97.2,520.8
	c0.1,0,0.2,0,0.3,0C-97.1,520.8-97.2,520.8-97.2,520.8z M-34.4,433.8c0,11.1-9,20.2-20.2,20.2c-20.2,0-20.2-11.8-20.2-11.8
	c0-12.3-10-22.3-22.3-22.3c-12.3,0-22.2,10-22.2,22.3c0,0,0,11.8-20.2,11.8c-11.1,0-20.2-9-20.2-20.2v-12c0,0,0-24.5,30.3-24.5
	c18.5,0,28.6-3,32.4-5.5c3.8,2.5,13.9,5.5,32.4,5.5c30.3,0,30.2,24.5,30.2,24.5V433.8z"/>
</svg>
