<?xml version="1.0" encoding="utf-8"?>
<!-- Generator: Adobe Illustrator 19.0.0, SVG Export Plug-In . SVG Version: 6.00 Build 0)  -->
<svg version="1.1" id="Layer_1_copy" xmlns="http://www.w3.org/2000/svg" xmlns:xlink="http://www.w3.org/1999/xlink" x="0px"
	 y="0px" viewBox="-147 345.9 300 160" style="enable-background:new -147 345.9 300 160;" xml:space="preserve">
<style type="text/css">
	.st0{fill:none;}
	.st1{fill:#D9D9D9;}
	.st2{fill:#FFFFFF;}
</style>
<line class="st0" x1="-286.9" y1="816.8" x2="-283.8" y2="819.8"/>
<g>
	<path class="st1" d="M3,345.9c0,82.8-67.2,150-150,150h57.3c32.5-14.1,47.2-28.3,55.8-36.9c16.5-16.5,29-36,36.9-57.2
		c7.9,21.2,20.4,40.7,36.9,57.2c8.6,8.6,23.3,22.8,55.8,36.9H153C70.2,495.9,3,428.7,3,345.9z"/>
	<path class="st2" d="M95.7,495.9L95.7,495.9L95.7,495.9c-32.5-14.1-47.2-28.3-55.8-36.9c-16.5-16.5-29-36-36.9-57.2
		C-4.9,423-17.4,442.5-33.9,459c-10.7,10.7-30.7,29.9-82.3,46.9h238.4C112.2,502.6,103.5,499.3,95.7,495.9z"/>
</g>
</svg>
