<?xml version="1.0" encoding="utf-8"?>
<!-- Generator: Adobe Illustrator 16.0.0, SVG Export Plug-In . SVG Version: 6.00 Build 0)  -->
<!DOCTYPE svg PUBLIC "-//W3C//DTD SVG 1.1//EN" "http://www.w3.org/Graphics/SVG/1.1/DTD/svg11.dtd">
<svg version="1.1" id="Layer_1" xmlns="http://www.w3.org/2000/svg" xmlns:xlink="http://www.w3.org/1999/xlink" x="0px" y="0px"
	 width="10px" height="20px" viewBox="0 0 10 20" enable-background="new 0 0 10 20" xml:space="preserve">
<g>
	<g enable-background="new    ">
		<g opacity="0.2">
			<path d="M10,0.825v19.15c-5.288,0-9.574-4.286-9.574-9.575C0.426,5.112,4.712,0.825,10,0.825z"/>
		</g>
		<g>
			<path fill="#EFEFEF" d="M10,0.425v19.149c-5.288,0-9.574-4.286-9.574-9.574S4.712,0.425,10,0.425z"/>
		</g>
	</g>
	<path display="none" fill="#CBCBCB" d="M10,0v0.425c-5.288,0-9.574,4.287-9.574,9.575S4.712,19.574,10,19.574V20
		C4.486,20,0,15.514,0,10C0,4.486,4.486,0,10,0z"/>
</g>
<g>
	<g opacity="0.6">
		<path d="M5.005,7.254c0.124,0,0.246,0.047,0.339,0.141l2.038,2.039C7.474,9.527,7.521,9.65,7.521,9.772
			c0,0.01,0,0.019-0.002,0.028c0.002,0.01,0.002,0.018,0.002,0.027c0,0.123-0.045,0.246-0.139,0.34l-2.038,2.037
			c-0.093,0.095-0.216,0.142-0.339,0.142c-0.124,0-0.247-0.047-0.34-0.142l-0.171-0.17c-0.093-0.092-0.139-0.217-0.139-0.34
			s0.046-0.246,0.139-0.34L6.05,9.8L4.494,8.244C4.401,8.15,4.355,8.028,4.355,7.904c0-0.123,0.046-0.246,0.139-0.34l0.171-0.169
			C4.758,7.301,4.882,7.254,5.005,7.254"/>
	</g>
	<g>
		<path fill="#888888" d="M5.205,7.454c0.124,0,0.246,0.047,0.339,0.141l2.038,2.039C7.674,9.727,7.721,9.85,7.721,9.972
			c0,0.01,0,0.019-0.002,0.028c0.002,0.01,0.002,0.018,0.002,0.027c0,0.123-0.045,0.246-0.139,0.34l-2.038,2.037
			c-0.093,0.095-0.216,0.142-0.339,0.142c-0.124,0-0.247-0.047-0.34-0.142l-0.171-0.17c-0.093-0.092-0.139-0.217-0.139-0.34
			s0.046-0.246,0.139-0.34L6.25,10L4.694,8.444C4.601,8.35,4.555,8.228,4.555,8.104c0-0.123,0.046-0.246,0.139-0.34l0.171-0.169
			C4.958,7.501,5.082,7.454,5.205,7.454"/>
	</g>
</g>
</svg>
