<?xml version="1.0" encoding="utf-8"?>
<!-- Generator: Adobe Illustrator 16.0.0, SVG Export Plug-In . SVG Version: 6.00 Build 0)  -->
<!DOCTYPE svg PUBLIC "-//W3C//DTD SVG 1.1//EN" "http://www.w3.org/Graphics/SVG/1.1/DTD/svg11.dtd">
<svg version="1.1" id="Layer_1" xmlns="http://www.w3.org/2000/svg" xmlns:xlink="http://www.w3.org/1999/xlink" x="0px" y="0px"
	 width="10px" height="20px" viewBox="0 0 10 20" enable-background="new 0 0 10 20" xml:space="preserve">
<g>
	<g enable-background="new    ">
		<g opacity="0.2">
			<path d="M9.574,10.4c0,5.289-4.286,9.575-9.574,9.575V0.825C5.288,0.825,9.574,5.112,9.574,10.4z"/>
		</g>
		<g>
			<path fill="#EFEFEF" d="M9.574,10c0,5.288-4.286,9.574-9.574,9.574V0.425C5.288,0.425,9.574,4.712,9.574,10z"/>
		</g>
	</g>
	<path display="none" fill="#CBCBCB" d="M10,10c0,5.514-4.486,10-10,10v-0.426c5.288,0,9.574-4.286,9.574-9.574S5.288,0.425,0,0.425
		V0C5.514,0,10,4.486,10,10z"/>
</g>
<g>
	<g opacity="0.6">
		<path d="M4.595,7.254c0.123,0,0.247,0.047,0.34,0.141l0.171,0.169c0.093,0.094,0.139,0.217,0.139,0.34
			c0,0.124-0.046,0.246-0.139,0.34L3.55,9.8l1.556,1.555c0.093,0.094,0.139,0.217,0.139,0.34s-0.046,0.248-0.139,0.34l-0.171,0.17
			c-0.093,0.095-0.216,0.142-0.34,0.142c-0.123,0-0.246-0.047-0.339-0.142l-2.038-2.037c-0.094-0.094-0.139-0.217-0.139-0.34
			c0-0.009,0-0.017,0.002-0.027C2.079,9.791,2.079,9.782,2.079,9.772c0-0.122,0.047-0.245,0.139-0.338l2.038-2.039
			C4.349,7.301,4.471,7.254,4.595,7.254"/>
	</g>
	<g>
		<path fill="#888888" d="M4.795,7.454c0.123,0,0.247,0.047,0.34,0.141l0.171,0.169c0.093,0.094,0.139,0.217,0.139,0.34
			c0,0.124-0.046,0.246-0.139,0.34L3.75,10l1.556,1.555c0.093,0.094,0.139,0.217,0.139,0.34s-0.046,0.248-0.139,0.34l-0.171,0.17
			c-0.093,0.095-0.216,0.142-0.34,0.142c-0.123,0-0.246-0.047-0.339-0.142l-2.038-2.037c-0.094-0.094-0.139-0.217-0.139-0.34
			c0-0.009,0-0.017,0.002-0.027C2.279,9.991,2.279,9.982,2.279,9.972c0-0.122,0.047-0.245,0.139-0.338l2.038-2.039
			C4.549,7.501,4.671,7.454,4.795,7.454"/>
	</g>
</g>
</svg>
